<mxfile host="app.diagrams.net" modified="2023-04-24T06:14:56.330Z" agent="Mozilla/5.0 (Windows NT 10.0; Win64; x64) AppleWebKit/537.36 (KHTML, like Gecko) Chrome/112.0.0.0 Safari/537.36" version="21.2.1" etag="gcAve9FAcTaWCMEqor-W" type="github">
  <diagram name="페이지-1" id="f8pmuMJG0EyJMqZC8OU4">
    <mxGraphModel>
      <root>
        <mxCell id="0" />
        <mxCell id="1" parent="0" />
      </root>
    </mxGraphModel>
  </diagram>
</mxfile>
